<svg id="Layer_1" enable-background="new 0 0 512 512" viewBox="0 0 512 512" xmlns="http://www.w3.org/2000/svg"><path d="m448.58 125.068h-19.65c23.356-10.094 35.605-22.442 35.605-36.1 0-18.072-20.97-33.567-60.642-44.844-17.124-26.326-45.818-43.624-78.268-43.624-11.202 0-22.192 2.041-32.693 6.078-8.75 3.405-35.87 3.404-44.66-.008-10.446-4.028-21.429-6.07-32.644-6.07-31.253 0-59.023 16.045-76.328 40.747-33.555 8.202-71.523 22.958-71.523 47.721 0 17.635 20.038 32.842 57.994 44.072 3.617 11.274 9.099 21.859 16.284 31.151 13.956 18.087 25.524 74.516 33.178 111.858 2.017 9.842 3.759 18.341 5.32 25.135 2.571 11.235 10.879 18.784 20.675 18.784 9.08 0 16.534-6.594 20.447-18.081l36.837-107.705c7.094-2.297 17.125-2.297 24.201-.004l36.842 107.721c3.953 11.483 11.414 18.068 20.47 18.068 9.756 0 18.062-7.54 20.675-18.786 1.533-6.71 3.248-15.08 5.232-24.772 3.882-18.956 8.644-42.19 14.185-63.101h33.295c3.859 0 6.988-3.129 6.988-6.988v-28.149h28.178c3.859 0 6.988-3.129 6.988-6.988v-39.127c.001-3.86-3.127-6.988-6.986-6.988zm1.98-36.1c0 7.895-11.1 16.809-30.159 24.525v-7.473c.094-1.912.141-3.626.141-5.226 0-13.883-2.685-27.116-7.533-39.151 27.391 9.59 37.551 20.094 37.551 27.325zm-234.932-74.492c9.489 0 18.781 1.728 27.602 5.128 12.044 4.675 42.757 4.674 54.744.009 8.867-3.409 18.17-5.137 27.651-5.137 41.181 0 75.277 32.968 80.302 75.453h-31.613c-3.859 0-6.988 3.129-6.988 6.988v28.151h-28.179c-3.859 0-6.988 3.129-6.988 6.988v.664c-21.156 2.236-43.319 3.381-66.004 3.381-48.443 0-94.021-5.1-129.041-14.395-1.591-6.8-2.429-13.821-2.429-20.912.001-47.596 36.312-86.318 80.943-86.318zm-133.875 74.492c0-8.071 12.905-20.314 47.908-30.661-5.737 12.908-8.951 27.307-8.951 42.486 0 5.523.446 11.011 1.295 16.413-29.435-9.855-40.252-20.803-40.252-28.238zm270.488 184.637c-1.968 9.609-3.667 17.908-5.159 24.438-1.105 4.754-3.94 7.947-7.056 7.947-3.972 0-6.558-6.613-7.251-8.627l-37.882-110.761c-.615-1.798-1.935-3.268-3.657-4.071-11.548-5.389-29.663-5.39-41.239-.003-1.725.802-3.048 2.274-3.664 4.074l-37.884 110.769c-.689 2.022-3.245 8.619-7.22 8.619-3.133 0-5.966-3.184-7.052-7.93-1.525-6.638-3.252-15.063-5.252-24.819-8.386-40.911-19.871-96.94-35.809-117.594-4.322-5.589-7.928-11.728-10.78-18.233 34.818 8.198 78.147 12.662 123.822 12.662 22.647 0 44.807-1.114 66.004-3.3v24.405c0 3.86 3.129 6.988 6.988 6.988h28.179v28.149c0 .208.013.413.031.617-5.97 22.021-11.028 46.696-15.119 66.67zm89.351-109.411h-28.178c-3.859 0-6.988 3.129-6.988 6.988v28.149h-25.123v-28.149c0-3.86-3.129-6.988-6.988-6.988h-28.179v-25.15h28.179c3.859 0 6.988-3.129 6.988-6.988v-28.151h25.123v28.151c0 3.86 3.129 6.988 6.988 6.988h28.178zm-37.976 180.162-63.409 40.658c-3.048-9.1-10.21-16.532-19.772-19.711l-110.956-36.693c-14.604-4.837-29.271-3.157-42.408 4.85l-48.306 29.377-3.789-5.944c-2.074-3.255-6.395-4.211-9.649-2.136l-54.631 34.827c-1.563.997-2.666 2.573-3.067 4.383-.4 1.81-.065 3.705.931 5.267l69.54 109.035c.997 1.563 2.573 2.666 4.383 3.065.5.111 1.005.166 1.509.166 1.321 0 2.627-.375 3.758-1.096l54.602-34.827c3.253-2.075 4.209-6.395 2.135-9.648l-8.048-12.624 20.682-12.58 88.287 29.201c5.942 1.965 11.881 2.942 17.735 2.942 10.231 0 20.199-2.985 29.451-8.899l104.686-67.113c14.453-9.293 18.671-28.611 9.402-43.063-9.281-14.469-28.598-18.706-43.066-9.437zm-277.49 150.506-62.024-97.25 42.844-27.313 61.999 97.251zm303.603-109.766-104.67 67.102c-10.873 6.95-23.067 8.492-35.262 4.459l-91.353-30.216c-1.946-.643-4.076-.401-5.826.664l-23.694 14.411-42.644-66.89 48.059-29.227c9.665-5.89 20.01-7.076 30.75-3.52l110.949 36.691c7.263 2.414 12.005 9.287 11.786 16.89-.06.258-.11.52-.141.789-.665 5.69-3.812 10.967-8.213 13.771-4.075 2.597-8.87 3.01-14.253 1.228l-50.529-16.72c-3.666-1.211-7.617.776-8.83 4.44-1.212 3.664.775 7.617 4.439 8.829l50.527 16.719c3.571 1.182 7.139 1.769 10.612 1.769 5.565 0 10.881-1.507 15.544-4.479 7.098-4.523 12.189-12.113 14.04-20.712l70.138-44.973c7.979-5.11 18.639-2.771 23.761 5.216 5.112 7.974 2.781 18.633-5.19 23.759zm-3.528-112.772v9.76h9.761c3.859 0 6.988 3.129 6.988 6.988s-3.129 6.988-6.988 6.988h-9.761v9.789c0 3.86-3.129 6.988-6.988 6.988s-6.988-3.129-6.988-6.988v-9.789h-9.789c-3.859 0-6.988-3.129-6.988-6.988s3.129-6.988 6.988-6.988h9.789v-9.76c0-3.86 3.129-6.988 6.988-6.988s6.988 3.128 6.988 6.988zm-297.625-80.857v9.789h9.789c3.859 0 6.988 3.129 6.988 6.988s-3.129 6.988-6.988 6.988h-9.789v9.789c0 3.86-3.129 6.988-6.988 6.988s-6.988-3.129-6.988-6.988v-9.789h-9.789c-3.859 0-6.988-3.129-6.988-6.988s3.129-6.988 6.988-6.988h9.789v-9.789c0-3.86 3.129-6.988 6.988-6.988s6.988 3.129 6.988 6.988z"/></svg>