<svg height="512" viewBox="0 0 64 64" width="512" xmlns="http://www.w3.org/2000/svg"><g id="Tooth-Teeth-Protect-Medical-Health_care" data-name="Tooth-Teeth-Protect-Medical-Health care"><path d="m58.01 7.36-25-5.17a4.91 4.91 0 0 0 -2.02 0l-25 5.17a5.027 5.027 0 0 0 -3.99 4.9v19.74c0 16.47 28.38 29.37 29.59 29.91a.979.979 0 0 0 .82 0 92 92 0 0 0 14.68-8.59c9.89-7.17 14.91-14.34 14.91-21.32v-19.74a5.027 5.027 0 0 0 -3.99-4.9zm1.99 24.64c0 14.17-24.51 26.25-28 27.9-3.49-1.65-28-13.72-28-27.9v-19.74a3.017 3.017 0 0 1 2.39-2.94l25-5.17a2.693 2.693 0 0 1 1.22 0l25 5.17a3.017 3.017 0 0 1 2.39 2.94z"/><path d="m44.96 26.69-.81 15.52a4.005 4.005 0 0 1 -4 3.79h-1.33a3.994 3.994 0 0 1 -3.98-3.6l-.65-6.6a2 2 0 0 0 -2-1.8h-.54a2 2 0 0 0 -2 1.83l-.55 6.51a3.975 3.975 0 0 1 -3.99 3.66h-1.26a4.005 4.005 0 0 1 -4-3.79l-.81-15.52a8.987 8.987 0 0 1 5.69-14.6 8.865 8.865 0 0 1 3.52.2.986.986 0 0 1 .72 1.21 1 1 0 0 1 -1.22.72 7 7 0 0 0 -8.69 5.84 6.965 6.965 0 0 0 1.71 5.59 1 1 0 0 1 .26.73l.82 15.72a2 2 0 0 0 2 1.9h1.26a2 2 0 0 0 2-1.83l.55-6.51a3.975 3.975 0 0 1 3.99-3.66h.54a4 4 0 0 1 3.99 3.6l.65 6.6a2 2 0 0 0 1.99 1.8h1.33a2 2 0 0 0 2-1.9l.83-15.74a.931.931 0 0 1 .25-.71 6.976 6.976 0 0 0 1.71-5.6 7 7 0 0 0 -12.19-3.67 1 1 0 1 1 -1.5-1.32 8.99 8.99 0 0 1 13.71 11.63z"/></g></svg>