<svg id="Capa_1" enable-background="new 0 0 511.984 511.984" height="512" viewBox="0 0 511.984 511.984" width="512" xmlns="http://www.w3.org/2000/svg"><g><path d="m9.112 319.809c.942 0 1.899-.179 2.825-.556 29.506-12.012 78.134-16.015 111.2-2.85.575 11.674 2.509 42.819 7.904 74.779 9.627 57.031 24.908 85.814 46.714 87.994 16.692 1.674 31.89-10.822 45.149-37.138 1.864-3.699.376-8.208-3.323-10.072-3.699-1.863-8.208-.376-10.072 3.323-7 13.894-17.93 30.194-30.26 28.962-8.489-.849-15.22-12.593-19.373-22.296-5.526-12.912-10.244-30.792-14.023-53.142-6.53-38.616-7.92-77.325-7.933-77.711-.064-.435-.001-.887-.444-2.299l-20.709-57.135c-3.091-8.54-4.658-17.455-4.658-26.499 0-20.588 7.969-40.002 22.438-54.666 4.146-4.201 8.771-7.928 13.746-11.078 2.344-1.484 5.157-1.688 7.719-.561 2.544 1.12 4.305 3.297 4.861 5.996l5.101 48.594c2.994 28.522 26.877 50.03 55.556 50.03h69.926c28.678 0 52.562-21.508 55.556-50.029l5.101-48.594c.556-2.699 2.316-4.876 4.86-5.996 2.562-1.128 5.376-.923 7.72.561 4.974 3.15 9.599 6.877 13.746 11.078 20.97 21.241 27.949 53.098 17.781 81.161l-20.71 57.139c-.088.384-.328.768-.444 2.299-.013.386-1.403 39.096-7.934 77.711-3.779 22.35-8.498 40.229-14.023 53.142-4.152 9.703-10.884 21.447-19.374 22.296-18.919 1.91-40.329-38.552-54.552-103.063-2.098-10.805-11.201-18.056-22.691-18.056-11.488 0-20.59 7.25-22.689 18.055-2.298 10.42-6.162 26.222-11.552 42.51-1.301 3.933.832 8.175 4.764 9.477 3.933 1.301 8.175-.832 9.477-4.764 5.608-16.946 9.611-33.333 11.982-44.096.017-.074.032-.147.045-.222 1.071-5.673 6.83-5.96 7.974-5.96s6.902.287 7.974 5.96c.014.074.029.148.045.222 3.352 15.215 10.599 44.416 21.479 69.044 13.484 30.524 29.046 45.968 46.296 45.966 24.749-.499 39.663-30.243 49.657-88.142 5.402-31.999 7.334-63.18 7.906-74.82 33.272-13.553 80.92-8.883 110.225 2.903.917.369 1.865.544 2.796.544 2.971 0 5.784-1.778 6.961-4.703 1.545-3.843-.317-8.211-4.16-9.757-29.76-11.97-74.628-17.081-110.54-6.666l15.19-41.908c12.128-33.473 3.804-71.473-21.209-96.809-4.945-5.01-10.462-9.456-16.396-13.213-6.538-4.14-14.683-4.744-21.786-1.617-6.232 2.743-10.898 8.005-12.909 14.396l-56.341 46.202c-14.869 12.194-36.405 12.134-51.206-.143l-55.502-46.034c-2.007-6.402-6.677-11.674-12.917-14.42-7.104-3.127-15.249-2.521-21.786 1.617-5.935 3.758-11.452 8.204-16.397 13.214-17.258 17.489-26.762 40.645-26.762 65.202 0 10.79 1.868 21.423 5.554 31.607l15.232 42.023c-36.59-10.441-82.673-5.219-111.613 6.562-3.836 1.562-5.681 5.938-4.119 9.774 1.183 2.908 3.987 4.672 6.947 4.672zm247.053-89.978c12.43 0 24.863-4.165 35.027-12.499l44.129-36.187-3.227 30.743c-2.19 20.863-19.661 36.596-40.638 36.596h-69.926c-20.978 0-38.448-15.732-40.638-36.596l-3.212-30.598 43.218 35.846c10.202 8.461 22.733 12.695 35.267 12.695z"/><path d="m502.874 496.984h-493.765c-4.142 0-7.5 3.358-7.5 7.5s3.358 7.5 7.5 7.5h493.765c4.142 0 7.5-3.358 7.5-7.5s-3.358-7.5-7.5-7.5z"/><path d="m162.649 42.535c5.246 29.307 30.662 50.579 60.433 50.579h11.41v26.282c-1.592-.371-3.238-.561-4.913-.561-5.743 0-11.142 2.236-15.202 6.297-4.061 4.061-6.298 9.459-6.298 15.203s2.237 11.143 6.297 15.203l26.413 26.413c4.061 4.061 9.46 6.297 15.203 6.297s11.142-2.236 15.203-6.297l26.413-26.413c4.062-4.061 6.298-9.46 6.298-15.203s-2.236-11.143-6.297-15.203c-4.061-4.061-9.46-6.297-15.203-6.297-1.675 0-3.321.19-4.913.561v-47.986c0-11.855-9.645-21.5-21.5-21.5s-21.5 9.645-21.5 21.5v6.703h-11.41c-22.497 0-41.703-16.074-45.667-38.221l-3.43-19.169c-.25-1.401.302-2.446.654-2.944.351-.497 1.147-1.365 2.542-1.597.184-.03.366-.068.547-.112 15.124-3.684 36.905 2.685 55.622 8.751-9.241 2.994-20.106 5.946-29.124 6.793-4.124.388-7.153 4.045-6.765 8.169.366 3.885 3.633 6.798 7.458 6.798 34.678-4.656 48.63-14.549 69.773-20.138 19.506-6.402 43.781-14.37 60.593-10.366.169.041.339.075.51.103 1.402.232 2.2 1.102 2.552 1.6.351.498.903 1.542.653 2.94l-3.43 19.17c-3.105 17.352-15.522 31.258-32.403 36.292-3.97 1.184-6.228 5.361-5.044 9.331s5.362 6.228 9.331 5.044c22.341-6.662 38.773-25.064 42.882-48.024l3.43-19.17c.897-5.017-.227-10.071-3.165-14.233-2.884-4.085-7.164-6.811-12.075-7.699-20.9-4.866-47.291 3.796-68.511 10.761-4.785 1.571-9.342 3.066-13.516 4.307-4.026-1.203-8.447-2.652-13.087-4.173-21.513-7.049-48.262-15.816-68.987-10.89-4.897.892-9.165 3.615-12.043 7.693-2.938 4.163-4.062 9.218-3.164 14.235zm86.843 28.875c0-3.584 2.916-6.5 6.5-6.5s6.5 2.916 6.5 6.5v61.539c0 3.034 1.827 5.768 4.63 6.929 2.802 1.161 6.029.52 8.173-1.626l2.514-2.514c1.228-1.228 2.86-1.904 4.596-1.904s3.368.676 4.597 1.904c1.228 1.228 1.903 2.859 1.903 4.596s-.676 3.368-1.904 4.596l-26.413 26.413c-1.228 1.228-2.86 1.904-4.596 1.904s-3.368-.676-4.596-1.904l-26.414-26.414c-1.228-1.227-1.903-2.859-1.903-4.596s.676-3.369 1.904-4.596c1.228-1.228 2.86-1.904 4.596-1.904s3.368.676 4.596 1.904l2.514 2.514c2.146 2.146 5.372 2.787 8.173 1.626 2.803-1.161 4.63-3.896 4.63-6.929z"/><ellipse cx="451.806" cy="364.454" rx="7.479" ry="7.479" transform="matrix(.973 -.23 .23 .973 -71.648 113.553)"/><ellipse cx="73.419" cy="459.403" rx="7.479" ry="7.479" transform="matrix(.973 -.23 .23 .973 -103.585 29.158)"/><ellipse cx="48.801" cy="430.865" rx="7.479" ry="7.479" transform="matrix(.707 -.707 .707 .707 -290.374 160.705)"/></g></svg>