<svg height="512" viewBox="0 0 68 68" width="512" xmlns="http://www.w3.org/2000/svg"><g id="Page-1" fill="none" fill-rule="evenodd"><g id="specs_export" fill="rgb(0,0,0)" transform="translate(-296 -1016)"><path id="grid,-dots,-energy,-accumulation,-focus" d="m297 1044c-.552285 0-1-.44772-1-1s.447715-1 1-1 1 .44772 1 1-.447715 1-1 1zm66 0c-.552285 0-1-.44772-1-1s.447715-1 1-1 1 .44772 1 1-.447715 1-1 1zm0-14c-.552285 0-1-.44772-1-1s.447715-1 1-1 1 .44772 1 1-.447715 1-1 1zm0 28c-.552285 0-1-.44772-1-1s.447715-1 1-1 1 .44772 1 1-.447715 1-1 1zm0 14c-.552285 0-1-.44772-1-1s.447715-1 1-1 1 .44772 1 1-.447715 1-1 1zm-27-55c0-.55228.447715-1 1-1s1 .44772 1 1-.447715 1-1 1-1-.44772-1-1zm14 0c0-.55228.447715-1 1-1s1 .44772 1 1-.447715 1-1 1-1-.44772-1-1zm-28 0c0-.55228.447715-1 1-1s1 .44772 1 1-.447715 1-1 1-1-.44772-1-1zm-14 0c0-.55228.447715-1 1-1s1 .44772 1 1-.447715 1-1 1-1-.44772-1-1zm28 66c0-.55228.447715-1 1-1s1 .44772 1 1-.447715 1-1 1-1-.44772-1-1zm14 0c0-.55228.447715-1 1-1s1 .44772 1 1-.447715 1-1 1-1-.44772-1-1zm-28 0c0-.55228.447715-1 1-1s1 .44772 1 1-.447715 1-1 1-1-.44772-1-1zm-14 0c0-.55228.447715-1 1-1s1 .44772 1 1-.447715 1-1 1-1-.44772-1-1zm-11-53c-.552285 0-1-.44772-1-1s.447715-1 1-1 1 .44772 1 1-.447715 1-1 1zm0 28c-.552285 0-1-.44772-1-1s.447715-1 1-1 1 .44772 1 1-.447715 1-1 1zm0 14c-.552285 0-1-.44772-1-1s.447715-1 1-1 1 .44772 1 1-.447715 1-1 1zm12-27c-1.104569 0-2-.89543-2-2s.895431-2 2-2 2 .89543 2 2-.895431 2-2 2zm42 0c-1.104569 0-2-.89543-2-2s.895431-2 2-2 2 .89543 2 2-.895431 2-2 2zm-14-14c-1.104569 0-2-.89543-2-2s.895431-2 2-2 2 .89543 2 2-.895431 2-2 2zm0 42c-1.104569 0-2-.89543-2-2s.895431-2 2-2 2 .89543 2 2-.895431 2-2 2zm-14-42c-1.104569 0-2-.89543-2-2s.895431-2 2-2 2 .89543 2 2-.895431 2-2 2zm14 15c-1.656854 0-3-1.34315-3-3s1.343146-3 3-3 3 1.34315 3 3-1.343146 3-3 3zm-14 0c-1.656854 0-3-1.34315-3-3s1.343146-3 3-3 3 1.34315 3 3-1.343146 3-3 3zm14 14c-1.656854 0-3-1.34315-3-3s1.343146-3 3-3 3 1.34315 3 3-1.343146 3-3 3zm-14 0c-1.656854 0-3-1.34315-3-3s1.343146-3 3-3 3 1.34315 3 3-1.343146 3-3 3zm0 13c-1.104569 0-2-.89543-2-2s.895431-2 2-2 2 .89543 2 2-.895431 2-2 2zm-14-43c-.552285 0-1-.44772-1-1s.447715-1 1-1 1 .44772 1 1-.447715 1-1 1zm42 0c-.552285 0-1-.44772-1-1s.447715-1 1-1 1 .44772 1 1-.447715 1-1 1zm-42 29c-1.104569 0-2-.89543-2-2s.895431-2 2-2 2 .89543 2 2-.895431 2-2 2zm42 0c-1.104569 0-2-.89543-2-2s.895431-2 2-2 2 .89543 2 2-.895431 2-2 2zm-42 13c-.552285 0-1-.44772-1-1s.447715-1 1-1 1 .44772 1 1-.447715 1-1 1zm42 0c-.552285 0-1-.44772-1-1s.447715-1 1-1 1 .44772 1 1-.447715 1-1 1z"/></g></g></svg>